<?xml version="1.0" encoding="UTF-8" standalone="no"?>
<!-- Created with Inkscape (http://www.inkscape.org/) -->

<svg
   xmlns:dc="http://purl.org/dc/elements/1.1/"
   xmlns:cc="http://creativecommons.org/ns#"
   xmlns:rdf="http://www.w3.org/1999/02/22-rdf-syntax-ns#"
   xmlns:svg="http://www.w3.org/2000/svg"
   xmlns="http://www.w3.org/2000/svg"
   xmlns:sodipodi="http://sodipodi.sourceforge.net/DTD/sodipodi-0.dtd"
   xmlns:inkscape="http://www.inkscape.org/namespaces/inkscape"
   version="1.1"
   width="255.10437"
   height="255.30626"
   id="svg2"
   inkscape:version="0.48.1 r9760"
   sodipodi:docname="logo.svg">
  <sodipodi:namedview
     pagecolor="#ffffff"
     bordercolor="#666666"
     borderopacity="1"
     objecttolerance="10"
     gridtolerance="10"
     guidetolerance="10"
     inkscape:pageopacity="0"
     inkscape:pageshadow="2"
     inkscape:window-width="1440"
     inkscape:window-height="850"
     id="namedview3053"
     showgrid="false"
     inkscape:zoom="1.1319738"
     inkscape:cx="127.55219"
     inkscape:cy="127.65313"
     inkscape:window-x="-4"
     inkscape:window-y="-4"
     inkscape:window-maximized="1"
     inkscape:current-layer="svg2" />
  <metadata
     id="metadata8">
    <rdf:RDF>
      <cc:Work
         rdf:about="">
        <dc:format>image/svg+xml</dc:format>
        <dc:type
           rdf:resource="http://purl.org/dc/dcmitype/StillImage" />
        <dc:title />
      </cc:Work>
    </rdf:RDF>
  </metadata>
  <defs
     id="defs6" />
  <rect
     style="fill:#000000;fill-opacity:1;stroke:none;stroke-width:2.40000010000000019;stroke-linecap:butt;stroke-linejoin:round;stroke-miterlimit:4;stroke-opacity:1;stroke-dasharray:none;stroke-dashoffset:0"
     id="rect3055"
     width="143.11292"
     height="182.86644"
     x="56.53841"
     y="32.686268" />
  <path
     d="M 113.05219,254.93145 C 103.58184,253.49 93.019867,250.9566 85.552187,248.33528 42.718497,233.29974 11.779507,197.85749 1.9392075,152.55219 c -2.58561,-11.90433 -2.58561,-38.09568 0,-50 C 7.3364975,77.702724 18.049207,57.336034 35.026157,39.648224 53.972557,19.908515 75.710597,7.769195 102.55219,1.939215 c 11.90432,-2.58562 38.09568,-2.58562 50,0 51.43514,11.17169 89.44129,49.177839 100.61298,100.612975 2.58561,11.90432 2.58561,38.09568 0,50 -11.02781,50.77268 -48.17467,88.49075 -98.61298,100.12936 -8.30648,1.91672 -34.39618,3.33116 -41.5,2.24991 z m 13.49921,-60.35333 2.59637,-10.47406 15.45221,-0.0259 c 14.00293,-0.0235 15.83999,-0.23335 19.58666,-2.23732 8.52672,-4.56064 14.06296,-12.71535 16.45869,-24.24315 1.85462,-8.92406 -0.0586,-15.14132 -6.70434,-21.78709 -2.96384,-2.96384 -5.3888,-5.51719 -5.3888,-5.67411 0,-0.15692 2.18937,-1.6463 4.86526,-3.30972 6.73531,-4.1869 10.65027,-12.04601 10.59775,-21.27454 -0.0644,-11.312706 -5.44169,-18.239066 -19.25155,-24.797336 -4.06583,-1.93086 -7.60098,-4.05415 -7.85589,-4.71843 -0.2549,-0.66429 0.6658,-5.655 2.04602,-11.09048 1.38021,-5.43548 2.14641,-10.24575 1.70266,-10.6895 -1.62337,-1.62338 -11.4547,-3.65829 -12.69624,-2.62791 -0.66141,0.54893 -2.20766,5.14381 -3.4361,10.21085 -1.22844,5.06705 -2.55795,9.57359 -2.95445,10.01454 -0.39651,0.44095 -2.81265,0.27503 -5.36919,-0.36872 -5.39104,-1.35752 -5.40436,-1.41751 -2.64827,-11.93305 2.99835,-11.43988 2.93764,-11.67155 -3.55342,-13.55856 -3.05438,-0.88793 -6.15432,-1.38384 -6.88874,-1.10201 -0.73442,0.28182 -2.37564,4.82772 -3.64714,10.10199 -1.27151,5.27427 -2.64988,10.13656 -3.06305,10.80509 -0.56844,0.91976 -3.96657,0.4212 -13.96594,-2.049 -7.268093,-1.79548 -13.553653,-2.91193 -13.967923,-2.48101 -0.41426,0.43092 -1.45686,3.4835 -2.31687,6.7835 -1.82062,6.986 -1.27572,7.87162 5.55309,9.02534 5.34483,0.903 9.188053,4.31426 9.078403,8.05801 -0.17733,6.05399 -15.298983,63.877496 -17.212393,65.818276 -1.72814,1.75284 -2.34246,1.80238 -7.85192,0.63319 -3.28741,-0.69763 -6.39293,-1.01143 -6.90116,-0.69733 -1.87259,1.15733 -6.57197,13.75348 -5.52264,14.80281 0.55964,0.55963 6.35951,2.36301 12.88861,4.0075 6.5291,1.64449 12.22055,3.33094 12.64766,3.74766 0.42712,0.41672 -0.35081,5.41364 -1.72873,11.10426 -1.65379,6.82998 -2.17666,10.74258 -1.53838,11.51166 1.48656,1.79121 12.09917,3.9309 12.918823,2.60466 0.36883,-0.59676 1.71091,-5.40036 2.98242,-10.67463 1.2715,-5.27427 2.88959,-9.81128 3.59575,-10.08227 0.70616,-0.27098 3.13109,0.005 5.38874,0.61263 4.87277,1.3121 4.87852,1.35871 1.69718,13.74907 -2.60349,10.13979 -2.53416,10.38637 3.40763,12.12012 7.63714,2.22844 8.1208,1.79686 10.99921,-9.81503 z m -5.28197,-31.64466 c -9.12012,-1.95731 -11.71724,-3.03958 -11.71724,-4.88277 0,-2.5396 6.2079,-26.92071 7.10842,-27.91784 1.05152,-1.16434 15.45674,2.62399 22.89158,6.0201 10.11594,4.6208 14.09531,10.61787 12.06029,18.17535 -2.48978,9.24631 -13.20125,12.28404 -30.34305,8.60516 z m 6.46946,-46.05271 c -3.47232,-0.82221 -6.53321,-2.06799 -6.80199,-2.7684 -0.61857,-1.61196 5.1087,-24.453566 6.4737,-25.818566 1.32333,-1.32334 12.69723,1.48891 19.00124,4.69814 6.5502,3.33456 9.28825,6.6132 9.81098,11.747996 1.18452,11.6358 -10.17282,16.47668 -28.48393,12.14083 z"
     id="path3009"
     style="fill:#f7931a;fill-opacity:1" />
</svg>
